<svg width="52" height="51" viewBox="0 0 52 51" fill="none" xmlns="http://www.w3.org/2000/svg">
<path d="M16.158 42.5488V47.3151C16.158 48.6689 15.4749 49.3913 14.2335 49.3913C12.9852 49.3913 12.298 48.648 12.298 47.2573V42.5541H10.5806V47.3151C10.5806 49.6576 11.9038 51 14.2109 51C16.5398 51 17.8754 49.6319 17.8754 47.2464V42.5488H16.158ZM22.4766 42.5488L18.7466 50.8703H20.4996L21.2196 49.2587L21.2712 49.1379H25.1461L25.9061 50.8703H27.7068L24.0115 42.5981L23.9783 42.5488L22.4766 42.5488ZM32.688 42.5488L30.7659 48.2745L28.8949 42.5531H27.0672L30.0175 50.8755H31.4397L33.3656 45.4084L35.2901 50.8755H36.7243L39.6673 42.5531H37.8864L36.0115 48.2745L34.089 42.5488H32.688ZM49.4944 42.5488V50.8632H51.1891V42.5488H49.4944ZM0.884544 42.5493V50.875H2.60242V47.4936H6.48122V50.875H8.19957V42.5493H6.48122V45.908H2.60242V42.5493H0.884544ZM41.0524 42.555V50.8693H47.4461V49.3534H42.7472V47.2918H45.8718V45.7754H42.7472V44.071H47.2824V42.555H41.0524ZM23.2043 44.6558L24.429 47.4433H24.4247L24.508 47.6356H21.9098L21.9921 47.4433L23.2043 44.6558Z" fill="#232527"/>
<path d="M22.2764 0.000107405C21.595 0.059375 19.7537 0.47152 19.7537 0.47152C15.6034 1.52641 14.6217 5.23005 14.6217 5.23005C14.419 5.85284 14.3269 6.4911 14.2999 7.09242V7.91084C14.3549 9.17533 14.6409 10.1195 14.6409 10.1195C16.0272 16.1645 22.8436 26.0973 24.3086 28.1838C24.4125 28.2852 24.4958 28.2486 24.4958 28.2486C24.6539 28.2057 24.6415 28.0565 24.6415 28.0565L24.6445 28.0573C26.9009 5.87888 22.2764 0.000107405 22.2764 0.000107405ZM29.7321 0.000107405C29.7321 0.000107405 25.0873 5.88199 27.3455 28.0733H27.3485C27.366 28.2142 27.4676 28.2435 27.4676 28.2435C27.6187 28.3011 27.6962 28.1583 27.6962 28.1583L27.697 28.1597C29.1995 26.0199 35.977 16.1412 37.3572 10.1194C37.3572 10.1194 38.1056 7.20484 37.3832 5.22994C37.3832 5.22994 36.3571 1.46895 32.2016 0.475053C32.2016 0.475053 31.004 0.176207 29.7321 0.000107405ZM8.30825 6.6581C8.30825 6.6581 4.35379 10.349 4.15725 14.2619H4.15882V14.8548C4.16182 14.8994 4.16412 14.9446 4.16698 14.99C4.33732 18.1453 6.75109 20.0126 6.75109 20.0126C10.6402 23.74 20.0572 28.4459 22.2454 29.5137C22.2761 29.5249 22.3891 29.5613 22.4555 29.4788C22.4555 29.4788 22.4901 29.453 22.5058 29.4067V29.3084C22.5043 29.3028 22.5013 29.2971 22.4984 29.291C16.5058 16.4175 8.30825 6.6581 8.30825 6.6581ZM43.6906 6.6581C43.6906 6.6581 35.5171 16.387 29.5271 29.2343L29.5294 29.2336C29.5294 29.2336 29.4587 29.3826 29.5731 29.4788C29.5731 29.4788 29.6072 29.5041 29.6545 29.5144H29.7373C29.7522 29.5102 29.7682 29.5045 29.7839 29.494C32.0316 28.397 41.3757 23.7234 45.2464 20.0133C45.2464 20.0133 47.6977 18.0775 47.8261 14.9696C48.1092 10.6529 43.6906 6.6581 43.6906 6.6581ZM51.0471 19.4387C51.0471 19.4387 37.7219 26.4707 30.8321 31.0407L30.8345 31.0429C30.8345 31.0429 30.7094 31.1234 30.7531 31.2677C30.7531 31.2677 30.8185 31.3841 30.9136 31.3841C33.3814 31.3883 42.7197 31.3993 42.9538 31.3564C42.9538 31.3564 44.1613 31.309 45.6534 30.7453C45.6534 30.7453 48.975 29.7068 50.7003 25.9984C50.7003 25.9984 51.4886 24.4478 51.5 22.2693V22.177C51.4943 21.3368 51.3738 20.4068 51.0471 19.4387ZM0.947997 19.4715C-0.264398 23.1623 1.36779 26.1363 1.37042 26.1411C3.07137 29.6753 6.3182 30.7461 6.3182 30.7461C7.81722 31.3517 9.3166 31.3936 9.3166 31.3936C9.55071 31.4357 18.6402 31.3978 21.0757 31.3866C21.1788 31.3858 21.2355 31.2839 21.2355 31.2839C21.2426 31.2727 21.2489 31.2614 21.2518 31.2511V31.1588C21.2316 31.097 21.1778 31.0533 21.1778 31.0533L21.1794 31.0526C14.2931 26.4841 0.947997 19.4715 0.947997 19.4715ZM20.7975 32.5212L5.12194 33.0617C6.82189 36.0417 9.68481 38.3577 12.6671 37.6464C14.7253 37.1404 19.3878 33.9423 20.927 32.8617L20.9218 32.8575C21.0415 32.7517 20.9988 32.6669 20.9988 32.6669C20.9594 32.5285 20.7975 32.5286 20.7975 32.5286L20.7975 32.5212ZM31.1798 32.5325L31.1783 32.5381C31.1783 32.5381 31.0407 32.5553 31.0022 32.6566C31.0022 32.6566 30.9688 32.7952 31.0614 32.864L31.0598 32.8654C32.5606 33.9237 37.1101 37.0515 39.3019 37.6588C39.3019 37.6588 39.6339 37.7699 40.1904 37.7897H40.5248C41.9932 37.7391 44.5514 36.9972 46.876 33.0698L31.1798 32.5325Z" fill="#CF0A2C"/>
</svg>
